<?xml version="1.0" encoding="UTF-8"?>
<svg version="1.1" xmlns="http://www.w3.org/2000/svg" width="67" height="42">
<path d="M0 0 C22.11 0 44.22 0 67 0 C67 13.86 67 27.72 67 42 C44.89 42 22.78 42 0 42 C0 28.14 0 14.28 0 0 Z " fill="#FCFAFD" transform="translate(0,0)"/>
<path d="M0 0 C3.06303578 -0.08115993 6.12390815 -0.14057409 9.1875 -0.1875 C10.48397461 -0.22520508 10.48397461 -0.22520508 11.80664062 -0.26367188 C20.24041149 -0.36061177 20.24041149 -0.36061177 24 3 C24.4375 6.5625 24.4375 6.5625 24 10 C23.34 10.66 22.68 11.32 22 12 C21.01 12 20.02 12 19 12 C19.515625 12.53625 20.03125 13.0725 20.5625 13.625 C22 16 22 16 22 19 C20.67344669 22.97965993 19.65784777 23.89437545 16 26 C12.05086096 26.49016536 8.15902384 26.37615714 4.1875 26.25 C3.11306641 26.23195313 2.03863281 26.21390625 0.93164062 26.1953125 C-1.71315465 26.14829392 -4.35611589 26.0825916 -7 26 C-6.69658691 25.42113037 -6.39317383 24.84226074 -6.08056641 24.24584961 C-4.42669282 20.80843815 -3.44798877 17.21502863 -2.375 13.5625 C-2.14554688 12.81162109 -1.91609375 12.06074219 -1.6796875 11.28710938 C-0.53881087 7.42646436 0.30765145 4.07233371 0 0 Z " fill="#622FCD" transform="translate(37,8)"/>
<path d="M0 0 C7.26 0 14.52 0 22 0 C22 2.31 22 4.62 22 7 C20.02 7.99 20.02 7.99 18 9 C17.34 7.35 16.68 5.7 16 4 C14.02 4 12.04 4 10 4 C9.34 6.64 8.68 9.28 8 12 C8.763125 11.505 9.52625 11.01 10.3125 10.5 C13 9 13 9 16 9 C15.34 11.97 14.68 14.94 14 18 C10 18 10 18 8.25 16.5 C7.8375 16.005 7.425 15.51 7 15 C6.814375 16.258125 6.62875 17.51625 6.4375 18.8125 C6.33308594 19.52019531 6.22867187 20.22789063 6.12109375 20.95703125 C5.86095201 23.2025342 5.86095201 23.2025342 7 26 C2.38 26 -2.24 26 -7 26 C-6.34 24.68 -5.68 23.36 -5 22 C-4.01488757 19.22100135 -3.20592602 16.39103015 -2.375 13.5625 C-2.14554688 12.81162109 -1.91609375 12.06074219 -1.6796875 11.28710938 C-1.463125 10.55427734 -1.2465625 9.82144531 -1.0234375 9.06640625 C-0.82669434 8.40584229 -0.62995117 7.74527832 -0.42724609 7.06469727 C0.16886353 4.53536139 0.16886353 4.53536139 0 0 Z " fill="#5E1DE2" transform="translate(12,8)"/>
<path d="M0 0 C3.06303578 -0.08115993 6.12390815 -0.14057409 9.1875 -0.1875 C10.48397461 -0.22520508 10.48397461 -0.22520508 11.80664062 -0.26367188 C20.24041149 -0.36061177 20.24041149 -0.36061177 24 3 C24.4375 6.5625 24.4375 6.5625 24 10 C22 12 22 12 18.5625 12.0625 C17.386875 12.041875 16.21125 12.02125 15 12 C14.01 12.33 13.02 12.66 12 13 C12.061875 13.9075 12.12375 14.815 12.1875 15.75 C11.98197341 19.31246095 11.59276913 20.59242867 9 23 C7.68 23 6.36 23 5 23 C5.13277344 22.29875 5.26554687 21.5975 5.40234375 20.875 C6.23057218 16.42553925 7.04229368 11.99726751 7.5625 7.5 C8 4 8 4 9 1 C6.69 1 4.38 1 2 1 C2 3.31 2 5.62 2 8 C1.01 8.495 1.01 8.495 0 9 C0 6.03 0 3.06 0 0 Z " fill="#5B1DDB" transform="translate(37,8)"/>
<path d="M0 0 C2.31 0 4.62 0 7 0 C6.34 3.63 5.68 7.26 5 11 C5.66 11.33 6.32 11.66 7 12 C6.34 12 5.68 12 5 12 C4.67 15.96 4.34 19.92 4 24 C0.37 24 -3.26 24 -7 24 C-6.01 22.515 -6.01 22.515 -5 21 C-3.33543116 16.69170418 -2.62614555 12.56191761 -2 8 C-1.67 7.67 -1.34 7.34 -1 7 C-0.63239269 4.67182036 -0.29758419 2.3381615 0 0 Z " fill="#5C18E7" transform="translate(39,9)"/>
<path d="M0 0 C7.26 0 14.52 0 22 0 C22 2.31 22 4.62 22 7 C20.02 7.99 20.02 7.99 18 9 C17.34 7.35 16.68 5.7 16 4 C14.02 4 12.04 4 10 4 C10 3.67 10 3.34 10 3 C12.64 3 15.28 3 18 3 C18 4.32 18 5.64 18 7 C18.66 7 19.32 7 20 7 C20 5.02 20 3.04 20 1 C11.585 1.495 11.585 1.495 3 2 C3 3.65 3 5.3 3 7 C2.0355414 9.34824702 1.03485877 11.68191636 0 14 C-0.69140522 16.77888613 -0.69140522 16.77888613 -1 19 C-1.66 19 -2.32 19 -3 19 C-2.43882187 13.85586714 -1.60374523 8.91642161 -0.40234375 3.8828125 C0.06965827 1.99491327 0.06965827 1.99491327 0 0 Z " fill="#612DCF" transform="translate(12,8)"/>
<path d="M0 0 C1.875 0.75 1.875 0.75 2.875 2.75 C2.91522391 5.0829866 2.91820247 7.41706666 2.875 9.75 C2.215 9.75 1.555 9.75 0.875 9.75 C0.875 10.41 0.875 11.07 0.875 11.75 C-0.445 11.75 -1.765 11.75 -3.125 11.75 C-3.125 12.41 -3.125 13.07 -3.125 13.75 C-4.775 13.75 -6.425 13.75 -8.125 13.75 C-7.3825 12.7290625 -7.3825 12.7290625 -6.625 11.6875 C-4.84550154 8.75236863 -4.84550154 8.75236863 -5.125 5.0625 C-5.125 3.969375 -5.125 2.87625 -5.125 1.75 C-2.125 -0.25 -2.125 -0.25 0 0 Z " fill="#5D18E8" transform="translate(54.125,19.25)"/>
<path d="M0 0 C1.98 0 3.96 0 6 0 C6.66 1.65 7.32 3.3 8 5 C7.34 5.66 6.68 6.32 6 7 C6 6.34 6 5.68 6 5 C4.8553125 5.7425 4.8553125 5.7425 3.6875 6.5 C1 8 1 8 -2 8 C-1.34 5.36 -0.68 2.72 0 0 Z " fill="#EBD9FD" transform="translate(22,12)"/>
<path d="M0 0 C-0.66 2.97 -1.32 5.94 -2 9 C-3.32 9 -4.64 9 -6 9 C-6.66 7.35 -7.32 5.7 -8 4 C-3.375 0 -3.375 0 0 0 Z " fill="#5F1FE0" transform="translate(28,17)"/>
<path d="M0 0 C1.2065625 0.0309375 1.2065625 0.0309375 2.4375 0.0625 C1.6875 5.8125 1.6875 5.8125 -0.5625 8.0625 C-1.8825 8.0625 -3.2025 8.0625 -4.5625 8.0625 C-3.54737544 0.08652135 -3.54737544 0.08652135 0 0 Z " fill="#E7D3FD" transform="translate(46.5625,22.9375)"/>
<path d="M0 0 C1.65 0.33 3.3 0.66 5 1 C4.25 5.75 4.25 5.75 2 8 C0.68 8 -0.64 8 -2 8 C-1.34 5.36 -0.68 2.72 0 0 Z " fill="#E6D0FD" transform="translate(47,11)"/>
<path d="M0 0 C0.66 0 1.32 0 2 0 C1.34 2.31 0.68 4.62 0 7 C2.47627099 6.36078035 2.47627099 6.36078035 5 5 C6.36078035 2.47627099 6.36078035 2.47627099 7 0 C7.33 0 7.66 0 8 0 C8 1.98 8 3.96 8 6 C6.35 6.66 4.7 7.32 3 8 C3.33 8.99 3.66 9.98 4 11 C2.35 11 0.7 11 -1 11 C-1.14285714 3.57142857 -1.14285714 3.57142857 0 0 Z " fill="#612AD2" transform="translate(45,12)"/>
<path d="M0 0 C0.66 0.66 1.32 1.32 2 2 C1.7578125 4.1640625 1.7578125 4.1640625 1.125 6.625 C0.92132813 7.44226563 0.71765625 8.25953125 0.5078125 9.1015625 C0.34023438 9.72804688 0.17265625 10.35453125 0 11 C-1.94158017 7.48375245 -2.18311068 5.0284349 -2 1 C-1.34 0.67 -0.68 0.34 0 0 Z " fill="#DFC8F9" transform="translate(36,8)"/>
<path d="M0 0 C0.99 0 1.98 0 3 0 C2.745504 1.48206495 2.47088238 2.96068615 2.1875 4.4375 C2.03667969 5.26121094 1.88585937 6.08492187 1.73046875 6.93359375 C1.48941406 7.61550781 1.24835937 8.29742187 1 9 C0.01 9.33 -0.98 9.66 -2 10 C-2 9.34 -2 8.68 -2 8 C-1.34 8 -0.68 8 0 8 C0.33 6.35 0.66 4.7 1 3 C0.01 2.67 -0.98 2.34 -2 2 C-1.34 1.34 -0.68 0.68 0 0 Z " fill="#5E2FC3" transform="translate(25,17)"/>
<path d="M0 0 C0.66 0.33 1.32 0.66 2 1 C2.125 4.375 2.125 4.375 2 8 C1.34 8.66 0.68 9.32 0 10 C-0.99 9.67 -1.98 9.34 -3 9 C-2.67 8.34 -2.34 7.68 -2 7 C-1.34 7 -0.68 7 0 7 C0 4.69 0 2.38 0 0 Z " fill="#612FCE" transform="translate(59,10)"/>
<path d="M0 0 C0.99 0.33 1.98 0.66 3 1 C3.33 1.99 3.66 2.98 4 4 C3.38125 4.28875 2.7625 4.5775 2.125 4.875 C-0.13325765 5.93720042 -0.13325765 5.93720042 -2 8 C-1.125 2.25 -1.125 2.25 0 0 Z " fill="#DFC7FD" transform="translate(19,23)"/>
<path d="M0 0 C2 3 2 3 1.7578125 5.04296875 C1.171875 7.02864583 0.5859375 9.01432292 0 11 C-0.66 11 -1.32 11 -2 11 C-1.125 3.375 -1.125 3.375 0 0 Z " fill="#703FD8" transform="translate(11,16)"/>
</svg>
