<?xml version="1.0" encoding="UTF-8"?>
<svg version="1.1" xmlns="http://www.w3.org/2000/svg" width="81" height="43">
<path d="M0 0 C26.73 0 53.46 0 81 0 C81 14.19 81 28.38 81 43 C54.27 43 27.54 43 0 43 C0 28.81 0 14.62 0 0 Z " fill="#FAFBFC" transform="translate(0,0)"/>
<path d="M0 0 C3.4165052 -0.08724706 6.83272313 -0.14047325 10.25 -0.1875 C11.70212891 -0.22520508 11.70212891 -0.22520508 13.18359375 -0.26367188 C14.58544922 -0.27817383 14.58544922 -0.27817383 16.015625 -0.29296875 C16.87446289 -0.3086792 17.73330078 -0.32438965 18.61816406 -0.34057617 C21.54363677 0.07773404 22.89374132 0.95098313 25 3 C25.48258885 6.30918071 25.63437797 8.13493913 23.625 10.875 C22 12 22 12 20 12 C20.99 13.485 20.99 13.485 22 15 C22.55429864 21.2081448 22.55429864 21.2081448 20.6875 23.875 C17.39332971 26.07111353 14.51064041 26.11884332 10.67578125 26.09765625 C9.64775391 26.09443359 8.61972656 26.09121094 7.56054688 26.08789062 C6.48869141 26.07951172 5.41683594 26.07113281 4.3125 26.0625 C3.22904297 26.05798828 2.14558594 26.05347656 1.02929688 26.04882812 C-1.64719085 26.03703743 -4.32356777 26.02058063 -7 26 C-6.53702515 25.11598511 -6.53702515 25.11598511 -6.06469727 24.21411133 C-4.59392664 21.15554247 -3.78997723 17.95803052 -2.9375 14.6875 C-2.42509766 12.77517578 -2.42509766 12.77517578 -1.90234375 10.82421875 C-1.0462516 7.19601867 -0.46335655 3.69252179 0 0 Z " fill="#06070C" transform="translate(45,10)"/>
<path d="M0 0 C7.26 0 14.52 0 22 0 C23.07349791 4.29399165 22.79682816 5.19495213 21 9 C19.68 9 18.36 9 17 9 C16.67 7.35 16.34 5.7 16 4 C14.35 4 12.7 4 11 4 C10.67 5.98 10.34 7.96 10 10 C11.98 9.67 13.96 9.34 16 9 C15.34 12.3 14.68 15.6 14 19 C12.68 18.67 11.36 18.34 10 18 C10 17.34 10 16.68 10 16 C9.01 16 8.02 16 7 16 C6.88679144 21.08303686 6.88679144 21.08303686 8 26 C3.05 26 -1.9 26 -7 26 C-6.34 24.68 -5.68 23.36 -5 22 C-4.01488757 19.22100135 -3.20592602 16.39103015 -2.375 13.5625 C-2.14554688 12.81162109 -1.91609375 12.06074219 -1.6796875 11.28710938 C-1.463125 10.55427734 -1.2465625 9.82144531 -1.0234375 9.06640625 C-0.82669434 8.40584229 -0.62995117 7.74527832 -0.42724609 7.06469727 C0.16886353 4.53536139 0.16886353 4.53536139 0 0 Z " fill="#050A0E" transform="translate(20,10)"/>
<path d="M0 0 C1.65 0 3.3 0 5 0 C3.68 0.33 2.36 0.66 1 1 C0.67 2.98 0.34 4.96 0 7 C1.98 6.67 3.96 6.34 6 6 C5.34 9.3 4.68 12.6 4 16 C2.68 15.67 1.36 15.34 0 15 C0 14.34 0 13.68 0 13 C-0.99 13 -1.98 13 -3 13 C-3.33 15.31 -3.66 17.62 -4 20 C-5.10844919 16.67465243 -4.84454356 14.37817425 -4 11 C-3.01 10.67 -2.02 10.34 -1 10 C-1.20625 9.278125 -1.4125 8.55625 -1.625 7.8125 C-2.05952211 4.55358415 -1.41680669 2.91695496 0 0 Z " fill="#191428" transform="translate(30,13)"/>
<path d="M0 0 C4.29 0 8.58 0 13 0 C14.07349791 4.29399165 13.79682816 5.19495213 12 9 C10.68 9 9.36 9 8 9 C7.690625 7.824375 7.690625 7.824375 7.375 6.625 C6.19323388 3.69083714 6.19323388 3.69083714 2.875 2.6875 C1.92625 2.460625 0.9775 2.23375 0 2 C0 1.34 0 0.68 0 0 Z " fill="#010608" transform="translate(29,10)"/>
<path d="M0 0 C0.66 0.66 1.32 1.32 2 2 C1.56327952 8.48841859 -0.41961195 16.03643652 -3 22 C-3.99 22.66 -4.98 23.32 -6 24 C-6.26425905 19.63972568 -5.28866197 16.15235525 -4 12 C-3.62162461 10.68846909 -3.246494 9.37599665 -2.875 8.0625 C-2.58625 7.051875 -2.2975 6.04125 -2 5 C-1.34 5 -0.68 5 0 5 C0 3.35 0 1.7 0 0 Z " fill="#85DFDE" transform="translate(19,10)"/>
<path d="M0 0 C0.99 0 1.98 0 3 0 C3.19425316 5.17785156 2.56525801 9.72256113 1.1875 14.6875 C1.02185547 15.33783203 0.85621094 15.98816406 0.68554688 16.65820312 C-0.31213742 20.35151745 -1.45834879 23.12334605 -4 26 C-4.99 25.67 -5.98 25.34 -7 25 C-7 24.34 -7 23.68 -7 23 C-6.01 23 -5.02 23 -4 23 C-1.59847776 15.32721195 -0.40621064 8.02616194 0 0 Z " fill="#67D9D7" transform="translate(42,10)"/>
<path d="M0 0 C0.04254356 1.99954746 0.04080783 4.00041636 0 6 C-1 7 -1 7 -4.0625 7.0625 C-5.031875 7.041875 -6.00125 7.02125 -7 7 C-7 4.69 -7 2.38 -7 0 C-4.3333581 -1.33332095 -2.83319697 -0.67102033 0 0 Z " fill="#414868" transform="translate(60,14)"/>
<path d="M0 0 C1.65 0 3.3 0 5 0 C6.28939122 2.57878244 5.96551673 4.14514163 5.6875 7 C5.60886719 7.886875 5.53023437 8.77375 5.44921875 9.6875 C5 12 5 12 3 14 C3.875 7.25 3.875 7.25 5 5 C3.02 5.33 1.04 5.66 -1 6 C-0.67 4.02 -0.34 2.04 0 0 Z " fill="#838CB3" transform="translate(31,14)"/>
<path d="M0 0 C0 3.61029169 -0.96092582 6.55806676 -2 10 C-3.65 10.33 -5.3 10.66 -7 11 C-6.60446947 9.3489597 -6.18286103 7.7041485 -5.75 6.0625 C-5.51796875 5.14597656 -5.2859375 4.22945312 -5.046875 3.28515625 C-4 1 -4 1 -1.890625 0.18359375 C-1.26671875 0.12300781 -0.6428125 0.06242187 0 0 Z " fill="#F8E7FB" transform="translate(41,18)"/>
<path d="M0 0 C1.65 0 3.3 0 5 0 C4.67 1.98 4.34 3.96 4 6 C2.35 6.33 0.7 6.66 -1 7 C-0.67 4.69 -0.34 2.38 0 0 Z " fill="#A4CBDD" transform="translate(52,25)"/>
<path d="M0 0 C1.98 0.99 1.98 0.99 4 2 C4.1875 4.875 4.1875 4.875 4 8 C3.01 8.66 2.02 9.32 1 10 C0.67 6.7 0.34 3.4 0 0 Z " fill="#3E0E40" transform="translate(66,11)"/>
<path d="M0 0 C0.66 0.33 1.32 0.66 2 1 C1.67 3.31 1.34 5.62 1 8 C-0.65 8.33 -2.3 8.66 -4 9 C-3.2884375 7.88625 -3.2884375 7.88625 -2.5625 6.75 C-1.22130673 4.38949985 -0.487688 2.63351523 0 0 Z " fill="#301D45" transform="translate(41,10)"/>
<path d="M0 0 C0.99 0 1.98 0 3 0 C3.1875 3.3125 3.1875 3.3125 3 7 C2.01 7.99 1.02 8.98 0 10 C0 6.7 0 3.4 0 0 Z " fill="#8ABFE7" transform="translate(42,10)"/>
<path d="M0 0 C0.66 0 1.32 0 2 0 C1.67 2.31 1.34 4.62 1 7 C1.99 7.33 2.98 7.66 4 8 C2.35 8 0.7 8 -1 8 C-1.04241723 5.66705225 -1.04092937 3.33297433 -1 1 C-0.67 0.67 -0.34 0.34 0 0 Z " fill="#37193F" transform="translate(50,25)"/>
<path d="M0 0 C0.99 0 1.98 0 3 0 C3 1.65 3 3.3 3 5 C1.68 5.33 0.36 5.66 -1 6 C-1.042721 4.33388095 -1.04063832 2.66617115 -1 1 C-0.67 0.67 -0.34 0.34 0 0 Z " fill="#B2DBED" transform="translate(56,14)"/>
<path d="M0 0 C1.65 0 3.3 0 5 0 C3.68 0.33 2.36 0.66 1 1 C0.67 2.98 0.34 4.96 0 7 C0.66 7.33 1.32 7.66 2 8 C0.68 8.33 -0.64 8.66 -2 9 C-1.125 2.25 -1.125 2.25 0 0 Z " fill="#554275" transform="translate(30,13)"/>
<path d="M0 0 C0.66 0 1.32 0 2 0 C2 2.64 2 5.28 2 8 C1.01 8.33 0.02 8.66 -1 9 C-0.67 6.03 -0.34 3.06 0 0 Z " fill="#043639" transform="translate(45,10)"/>
<path d="M0 0 C0.99 0 1.98 0 3 0 C2.67 1.65 2.34 3.3 2 5 C1.01 5.33 0.02 5.66 -1 6 C-0.67 4.02 -0.34 2.04 0 0 Z " fill="#E8E2F7" transform="translate(31,14)"/>
</svg>
