<?xml version="1.0" encoding="UTF-8"?>
<svg version="1.1" xmlns="http://www.w3.org/2000/svg" width="180" height="112">
<path d="M0 0 C59.4 0 118.8 0 180 0 C180 36.96 180 73.92 180 112 C120.6 112 61.2 112 0 112 C0 75.04 0 38.08 0 0 Z " fill="#767AB0" transform="translate(0,0)"/>
<path d="M0 0 C59.4 0 118.8 0 180 0 C180 36.96 180 73.92 180 112 C120.6 112 61.2 112 0 112 C0 75.04 0 38.08 0 0 Z M52 8 C50.35536973 8.4626317 48.70958468 8.92118412 47.0625 9.375 C43.92053049 10.30491026 41.18520436 11.31516352 38.375 13 C34.64730742 15.20900301 31.07949302 16.56859894 27 18 C27 18.66 27 19.32 27 20 C26.34 20.185625 25.68 20.37125 25 20.5625 C20.72077483 22.61296206 17.26962834 25.56994597 14 29 C13.67 29.99 13.34 30.98 13 32 C12.34 32 11.68 32 11 32 C8.68407978 35.22114157 8.68407978 35.22114157 8 39 C7.34 39 6.68 39 6 39 C1.91751343 48.22996964 0.83718394 57.34508782 4 67 C4.37125 68.155 4.7425 69.31 5.125 70.5 C5.558125 71.7375 5.558125 71.7375 6 73 C6.66 73 7.32 73 8 73 C8.309375 73.78375 8.61875 74.5675 8.9375 75.375 C9.92875038 77.92330128 9.92875038 77.92330128 11 80 C11.66 80 12.32 80 13 80 C13.268125 80.60070312 13.53625 81.20140625 13.8125 81.8203125 C17.47475105 88.54247067 25.54203093 92.41943548 32 96 C32.94101562 96.52980469 33.88203125 97.05960937 34.8515625 97.60546875 C41.11760747 100.95342154 47.00073194 102.9430988 53.95703125 104.34765625 C57.36595305 105.07845207 60.54681618 106.12491459 63.8046875 107.3515625 C71.38907427 109.59179062 79.40049783 109.21994948 87.23046875 109.24023438 C89.46653674 109.24985601 91.70165019 109.28089788 93.9375 109.3125 C105.83313661 109.39998726 116.68764049 107.90513277 128 104 C129.64463027 103.5373683 131.29041532 103.07881588 132.9375 102.625 C137.45768336 101.28518517 140.97345927 99.43111893 145 97 C146.11375 96.54625 147.2275 96.0925 148.375 95.625 C155.08722807 92.61607017 161.17137962 88.58309232 166 83 C166.33 82.01 166.66 81.02 167 80 C167.66 80 168.32 80 169 80 C171.31592022 76.77885843 171.31592022 76.77885843 172 73 C172.66 73 173.32 73 174 73 C178.14097358 63.63779887 179.33095439 53.81651852 176 44 C174.13539967 39.67751741 171.79665605 35.78901787 169 32 C168.34 32 167.68 32 167 32 C166.731875 31.360625 166.46375 30.72125 166.1875 30.0625 C165.11332248 27.66868314 165.11332248 27.66868314 162 27 C161.566875 26.071875 161.566875 26.071875 161.125 25.125 C159.62447 22.29066555 157.82778993 21.41389497 155 20 C154.34 20 153.68 20 153 20 C153 19.34 153 18.68 153 18 C152.443125 17.75765625 151.88625 17.5153125 151.3125 17.265625 C150.1678125 16.76289063 150.1678125 16.76289063 149 16.25 C148.2575 15.92515625 147.515 15.6003125 146.75 15.265625 C145.24086127 14.5710782 143.73758915 13.86015874 142.27148438 13.07885742 C136.85834564 10.21392495 131.39242833 8.43989233 125.5 6.8125 C124.60152344 6.55275391 123.70304687 6.29300781 122.77734375 6.02539062 C112.73629233 3.19723422 103.07680061 2.78681273 92.6940918 2.75976562 C90.46689517 2.75012721 88.24065033 2.71906386 86.01367188 2.6875 C74.1369837 2.59989413 63.29396638 4.10086854 52 8 Z " fill="#FEFEFE" transform="translate(0,0)"/>
<path d="M0 0 C4.20820145 -0.08742801 8.41616776 -0.14053641 12.625 -0.1875 C14.40970703 -0.22520508 14.40970703 -0.22520508 16.23046875 -0.26367188 C27.48201932 -0.35795861 27.48201932 -0.35795861 32 3 C35.17181846 6.82483991 36.74003004 11.75566004 36.4453125 16.7265625 C34.97841062 24.2154826 32.09880659 31.3817287 25.79296875 35.953125 C18.75110125 40.06471648 10.88940967 39.19696168 3 39 C2.67 43.29 2.34 47.58 2 52 C-1.63 52 -5.26 52 -9 52 C-8.7009375 50.71351562 -8.401875 49.42703125 -8.09375 48.1015625 C-7.00986511 43.21835574 -6.21566026 38.32380771 -5.5 33.375 C-5.30772827 32.0761084 -5.30772827 32.0761084 -5.11157227 30.75097656 C-4.16420696 24.2972363 -3.31070718 17.83517934 -2.52734375 11.359375 C-1.9191652 7.4850524 -0.99764842 3.79189192 0 0 Z " fill="#010101" transform="translate(117,33)"/>
<path d="M0 0 C4.2290362 -0.08725659 8.45784012 -0.1404789 12.6875 -0.1875 C13.88568359 -0.21263672 15.08386719 -0.23777344 16.31835938 -0.26367188 C17.47529297 -0.27333984 18.63222656 -0.28300781 19.82421875 -0.29296875 C20.88729248 -0.3086792 21.95036621 -0.32438965 23.0456543 -0.34057617 C27.28495246 0.14812897 29.91520508 1.79897706 32.75 4.9375 C36.24816751 10.7094764 35.2207656 17.62819909 34 24 C31.70193174 29.05007592 29.19874005 32.80096679 24 35 C24 35.66 24 36.32 24 37 C19.29538677 38.86132673 15.1242304 39.2509496 10.125 39.125 C9.43664062 39.11597656 8.74828125 39.10695312 8.0390625 39.09765625 C6.35922162 39.07432513 4.67956254 39.03846326 3 39 C2.93941406 39.77085938 2.87882812 40.54171875 2.81640625 41.3359375 C2.73261719 42.33882812 2.64882813 43.34171875 2.5625 44.375 C2.48128906 45.37273437 2.40007813 46.37046875 2.31640625 47.3984375 C2 50 2 50 1 52 C-2.3 52 -5.6 52 -9 52 C-8.11933831 44.60244178 -7.15185519 37.33233985 -5.5 30.0625 C-4.04427612 23.62512806 -3.22172673 17.24505897 -2.52734375 10.69140625 C-1.99142417 6.93996918 -1.12246606 3.60959003 0 0 Z " fill="#010101" transform="translate(39,33)"/>
<path d="M0 0 C3.3 0 6.6 0 10 0 C9.34 4.95 8.68 9.9 8 15 C12.66681372 14.88223191 12.66681372 14.88223191 17.33251953 14.72973633 C21.97458483 14.67119116 25.14923979 15.39576247 29 18 C33.36225668 26.47578819 28.26805303 44.11268352 26 53 C25 54 25 54 22.93359375 54.09765625 C22.10988281 54.08605469 21.28617188 54.07445312 20.4375 54.0625 C19.61121094 54.05347656 18.78492187 54.04445312 17.93359375 54.03515625 C17.29550781 54.02355469 16.65742187 54.01195312 16 54 C15.54746742 46.72595782 16.63369251 40.26903977 18.34375 33.19921875 C18.93155495 30.33366962 19.21196091 27.90916352 19 25 C17.12175109 23.12175109 13.96064724 23.60897603 11.4375 23.4375 C10.23996094 23.35371094 9.04242188 23.26992188 7.80859375 23.18359375 C6.41833984 23.09271484 6.41833984 23.09271484 5 23 C4.96261719 23.90878906 4.92523438 24.81757812 4.88671875 25.75390625 C3.5974026 50.4025974 3.5974026 50.4025974 0 54 C-1.51928038 54.07179964 -3.04167482 54.08392007 -4.5625 54.0625 C-5.38878906 54.05347656 -6.21507813 54.04445312 -7.06640625 54.03515625 C-7.70449219 54.02355469 -8.34257813 54.01195312 -9 54 C-8.6293336 48.78140721 -8.25389444 43.65293713 -7 38.5625 C-6.20045136 35.27227106 -5.85651618 32.19282353 -5.6875 28.8125 C-5.02493348 19.03964382 -2.28893395 9.49358581 0 0 Z " fill="#000000" transform="translate(82,18)"/>
<path d="M0 0 C1.65322266 0.01740234 1.65322266 0.01740234 3.33984375 0.03515625 C4.99693359 0.04869141 4.99693359 0.04869141 6.6875 0.0625 C7.54214844 0.07410156 8.39679688 0.08570313 9.27734375 0.09765625 C10.20286005 3.74147219 10.26296545 6.27197074 9.33984375 9.91015625 C9.14519531 10.70035156 8.95054688 11.49054687 8.75 12.3046875 C8.59402344 12.89636719 8.43804687 13.48804688 8.27734375 14.09765625 C8.97859375 14.05125 9.67984375 14.00484375 10.40234375 13.95703125 C16.88732243 13.7103201 21.9994747 14.04870279 27.27734375 18.09765625 C29.27734375 20.84765625 29.27734375 20.84765625 30.27734375 23.09765625 C30.42171875 21.79828125 30.56609375 20.49890625 30.71484375 19.16015625 C31.15234375 15.22265625 31.15234375 15.22265625 32.27734375 14.09765625 C36.26910239 13.78580011 40.27492443 13.81899858 44.27734375 13.78515625 C45.38980469 13.75615234 46.50226563 13.72714844 47.6484375 13.69726562 C55.51353521 13.63704992 62.40843376 14.46322565 68.33984375 20.03515625 C69.47353758 22.52928268 69.50315721 24.38789468 69.27734375 27.09765625 C65.27734375 22.34765625 65.27734375 22.34765625 65.27734375 20.09765625 C61.07623981 18.52843656 57.48023977 17.81655415 53.00390625 17.68359375 C51.27333984 17.62558594 51.27333984 17.62558594 49.5078125 17.56640625 C48.31800781 17.53546875 47.12820312 17.50453125 45.90234375 17.47265625 C44.68933594 17.43398438 43.47632813 17.3953125 42.2265625 17.35546875 C39.24363854 17.26151839 36.2607155 17.17584818 33.27734375 17.09765625 C33.29796875 18.04640625 33.31859375 18.99515625 33.33984375 19.97265625 C33.27734375 23.09765625 33.27734375 23.09765625 32.27734375 25.09765625 C31.97022518 27.09240658 31.70845095 29.09415775 31.46484375 31.09765625 C30.49881653 38.71962079 29.37151329 46.31498807 28.21484375 53.91015625 C28.04041748 55.07353516 27.86599121 56.23691406 27.6862793 57.43554688 C27.519104 58.52673828 27.35192871 59.61792969 27.1796875 60.7421875 C27.03007568 61.72550049 26.88046387 62.70881348 26.72631836 63.72192383 C26.27734375 66.09765625 26.27734375 66.09765625 25.27734375 68.09765625 C28.57734375 68.42765625 31.87734375 68.75765625 35.27734375 69.09765625 C35.60734375 64.80765625 35.93734375 60.51765625 36.27734375 56.09765625 C37.20675781 56.04867187 38.13617188 55.9996875 39.09375 55.94921875 C48.35512275 55.39730458 48.35512275 55.39730458 57.27734375 53.09765625 C58.26734375 52.76765625 59.25734375 52.43765625 60.27734375 52.09765625 C61.48616471 50.09749159 61.48616471 50.09749159 62.27734375 48.09765625 C62.93734375 48.09765625 63.59734375 48.09765625 64.27734375 48.09765625 C64.47070312 47.38738281 64.6640625 46.67710938 64.86328125 45.9453125 C65.12367188 45.02621094 65.3840625 44.10710938 65.65234375 43.16015625 C65.90757812 42.24363281 66.1628125 41.32710937 66.42578125 40.3828125 C67.27734375 38.09765625 67.27734375 38.09765625 69.27734375 37.09765625 C70.0254466 43.08247906 67.70544309 46.47416781 64.27734375 51.09765625 C61.28365593 54.76733809 58.82682645 55.87177938 54.27734375 57.09765625 C51.60946733 57.23239748 49.06087934 57.28963486 46.40234375 57.22265625 C45.71398437 57.21363281 45.025625 57.20460937 44.31640625 57.1953125 C42.63656537 57.17198138 40.95690629 57.13611951 39.27734375 57.09765625 C39.07238281 58.09667969 38.86742187 59.09570312 38.65625 60.125 C38.38683594 61.41535156 38.11742187 62.70570312 37.83984375 64.03515625 C37.57300781 65.32292969 37.30617187 66.61070313 37.03125 67.9375 C36.27734375 71.09765625 36.27734375 71.09765625 35.27734375 72.09765625 C33.25770176 72.17009678 31.23567251 72.18142813 29.21484375 72.16015625 C28.11011719 72.15113281 27.00539062 72.14210938 25.8671875 72.1328125 C25.01253906 72.12121094 24.15789062 72.10960938 23.27734375 72.09765625 C23.17482703 66.97182014 23.24144176 62.14767847 24.27734375 57.09765625 C20.31734375 57.09765625 16.35734375 57.09765625 12.27734375 57.09765625 C12.02734375 49.47265625 12.02734375 49.47265625 14.27734375 46.09765625 C14.27734375 49.39765625 14.27734375 52.69765625 14.27734375 56.09765625 C18.73234375 55.60265625 18.73234375 55.60265625 23.27734375 55.09765625 C28.02054282 37.41489164 28.02054282 37.41489164 26.27734375 20.09765625 C22.28269595 17.76556431 17.98537852 17.68029804 13.46484375 17.47265625 C12.77197266 17.43398438 12.07910156 17.3953125 11.36523438 17.35546875 C9.6696736 17.26192057 7.97354663 17.17873261 6.27734375 17.09765625 C6.0928335 7.68763347 6.0928335 7.68763347 7.27734375 3.09765625 C4.30734375 2.76765625 1.33734375 2.43765625 -1.72265625 2.09765625 C-1.87734375 3.92296875 -1.87734375 3.92296875 -2.03515625 5.78515625 C-2.71104428 12.00730197 -4.23127588 18.0289575 -5.72265625 24.09765625 C-6.05265625 24.09765625 -6.38265625 24.09765625 -6.72265625 24.09765625 C-7.10639035 15.9539658 -6.51386988 8.8060338 -3.72265625 1.09765625 C-2.72265625 0.09765625 -2.72265625 0.09765625 0 0 Z " fill="#FBFBFB" transform="translate(83.72265625,15.90234375)"/>
<path d="M0 0 C1.11246094 -0.02900391 2.22492187 -0.05800781 3.37109375 -0.08789062 C10.22311849 -0.14035018 16.21566774 0.32356116 22 4.3125 C24.0625 7.5625 24.0625 7.5625 25 10.3125 C25.66 10.3125 26.32 10.3125 27 10.3125 C27.19610066 16.75113826 27.18841534 22.74287181 25.578125 29 C24.48136186 33.38705255 23.78223464 37.86041986 23 42.3125 C27.455 41.8175 27.455 41.8175 32 41.3125 C34.12155292 31.34120126 35.77971251 21.433708 37 11.3125 C39.12472576 11.25863371 41.24983652 11.21976929 43.375 11.1875 C44.55835937 11.16429687 45.74171875 11.14109375 46.9609375 11.1171875 C50 11.3125 50 11.3125 52 13.3125 C52.13630341 19.42343609 50.62457398 25.46403367 49 31.3125 C48.67 31.3125 48.34 31.3125 48 31.3125 C47.77915376 25.21468999 47.98832325 20.09607065 50 14.3125 C45.05 13.8175 45.05 13.8175 40 13.3125 C39.88930176 14.04364014 39.77860352 14.77478027 39.66455078 15.52807617 C39.15756457 18.85302998 38.64137966 22.17649264 38.125 25.5 C37.95097656 26.65048828 37.77695313 27.80097656 37.59765625 28.98632812 C37.42363281 30.09814453 37.24960938 31.20996094 37.0703125 32.35546875 C36.91320801 33.37664795 36.75610352 34.39782715 36.59423828 35.44995117 C36 38.3125 36 38.3125 34 43.3125 C30.04 43.3125 26.08 43.3125 22 43.3125 C20.84058962 39.83426885 21.29179116 37.85354422 22 34.3125 C21.2575 35.075625 20.515 35.83875 19.75 36.625 C13.87244545 42.36897376 9.97084814 43.46762753 1.8125 43.375 C1.06291016 43.37048828 0.31332031 43.36597656 -0.45898438 43.36132812 C-2.30602383 43.34956354 -4.15302213 43.33162865 -6 43.3125 C-6.04898438 43.97636719 -6.09796875 44.64023438 -6.1484375 45.32421875 C-6.22320312 46.20722656 -6.29796875 47.09023437 -6.375 48 C-6.44460937 48.87011719 -6.51421875 49.74023438 -6.5859375 50.63671875 C-7 53.3125 -7 53.3125 -9 58.3125 C-12.96 58.3125 -16.92 58.3125 -21 58.3125 C-22.05479929 54.09330282 -21.80278838 51.93937312 -21.07421875 47.7109375 C-20.85443359 46.41542969 -20.63464844 45.11992188 -20.40820312 43.78515625 C-20.16803639 42.41925894 -19.92780159 41.05337359 -19.6875 39.6875 C-19.45827098 38.34517372 -19.22974855 37.00272656 -19.00195312 35.66015625 C-17.90380263 29.23417085 -16.72494355 22.83105314 -15.41772461 16.44433594 C-14.60352196 12.28909481 -14.05661494 8.09364879 -13.46484375 3.90234375 C-12.38733869 -2.10089871 -4.99598436 0.04224339 0 0 Z M-11 3.3125 C-12.70954699 10.98147127 -14.26255182 18.61189455 -15.39453125 26.390625 C-16.38672665 32.81749071 -17.54129091 39.2164757 -18.67944336 45.61889648 C-18.84968018 46.58384033 -19.01991699 47.54878418 -19.1953125 48.54296875 C-19.35016113 49.41332764 -19.50500977 50.28368652 -19.66455078 51.18041992 C-20.05180745 53.28206477 -20.05180745 53.28206477 -20 55.3125 C-16.7 55.3125 -13.4 55.3125 -10 55.3125 C-9.67 54.28125 -9.34 53.25 -9 52.1875 C-8.814375 51.60742188 -8.62875 51.02734375 -8.4375 50.4296875 C-7.87328644 47.69929687 -7.93700487 45.09215993 -8 42.3125 C-6.48019531 42.34730469 -6.48019531 42.34730469 -4.9296875 42.3828125 C-3.57813242 42.4015841 -2.22656931 42.4197828 -0.875 42.4375 C0.12273438 42.46263672 0.12273438 42.46263672 1.140625 42.48828125 C5.49516056 42.53097278 8.95600114 41.91246217 13 40.3125 C13 39.6525 13 38.9925 13 38.3125 C13.59425781 38.06113281 14.18851563 37.80976562 14.80078125 37.55078125 C18.92904852 35.22633946 21.0543202 31.54405514 23 27.3125 C24.58792037 20.07960995 24.90624242 13.72989827 21 7.3125 C18.98060136 4.7882517 18.15499404 4.36416468 15 3.3125 C13.0079697 3.22958047 11.01326287 3.20511823 9.01953125 3.21484375 C7.27446289 3.21967773 7.27446289 3.21967773 5.49414062 3.22460938 C3.67172852 3.23717773 3.67172852 3.23717773 1.8125 3.25 C-0.02731445 3.25676758 -0.02731445 3.25676758 -1.90429688 3.26367188 C-4.93624668 3.27546935 -7.96809906 3.29193079 -11 3.3125 Z " fill="#FBFBFB" transform="translate(50,29.6875)"/>
<path d="M0 0 C1.17433594 -0.02578125 2.34867188 -0.0515625 3.55859375 -0.078125 C4.54988281 0.03015625 5.54117188 0.1384375 6.5625 0.25 C9.40566661 4.51474992 9.06921891 8.24517635 8.5625 13.25 C7.01138172 17.51557526 5.46091078 19.94032512 1.5625 22.25 C-1.453125 22.54296875 -1.453125 22.54296875 -4.6875 22.4375 C-6.30398437 22.39689453 -6.30398437 22.39689453 -7.953125 22.35546875 C-9.18289062 22.30326172 -9.18289062 22.30326172 -10.4375 22.25 C-10.58608539 17.22393753 -10.0927322 12.77922394 -9 7.875 C-8.73316406 6.65039062 -8.46632812 5.42578125 -8.19140625 4.1640625 C-6.88317815 -0.89261192 -4.93451162 0.06485667 0 0 Z " fill="#777BB3" transform="translate(54.4375,40.75)"/>
<path d="M0 0 C2.12438339 -0.08078641 4.2496323 -0.13909141 6.375 -0.1875 C7.55835938 -0.22230469 8.74171875 -0.25710937 9.9609375 -0.29296875 C11.46527344 -0.14794922 11.46527344 -0.14794922 13 0 C15.97425326 4.46137989 15.49867492 8.76774934 15 14 C13.41247307 17.81006463 11.49080813 19.84854708 8 22 C5.203125 22.29296875 5.203125 22.29296875 2.25 22.1875 C0.77273437 22.14689453 0.77273437 22.14689453 -0.734375 22.10546875 C-1.48203125 22.07066406 -2.2296875 22.03585938 -3 22 C-3.39363688 14.25847464 -1.94210433 7.47941368 0 0 Z " fill="#787CB3" transform="translate(126,41)"/>
<path d="M0 0 C1.17433594 -0.02578125 2.34867188 -0.0515625 3.55859375 -0.078125 C4.54988281 0.03015625 5.54117188 0.1384375 6.5625 0.25 C9.40566661 4.51474992 9.06921891 8.24517635 8.5625 13.25 C7.01138172 17.51557526 5.46091078 19.94032512 1.5625 22.25 C-1.453125 22.54296875 -1.453125 22.54296875 -4.6875 22.4375 C-6.30398437 22.39689453 -6.30398437 22.39689453 -7.953125 22.35546875 C-9.18289062 22.30326172 -9.18289062 22.30326172 -10.4375 22.25 C-10.58608539 17.22393753 -10.0927322 12.77922394 -9 7.875 C-8.73316406 6.65039062 -8.46632812 5.42578125 -8.19140625 4.1640625 C-6.88317815 -0.89261192 -4.93451162 0.06485667 0 0 Z M-5.4375 2.25 C-7.0201993 5.4153986 -7.09446549 8.89641509 -7.5 12.375 C-7.59087891 13.12910156 -7.68175781 13.88320313 -7.77539062 14.66015625 C-7.99940852 16.52304188 -8.21888573 18.38647252 -8.4375 20.25 C-6.66594346 20.13570603 -4.89523771 20.00816963 -3.125 19.875 C-2.13886719 19.80539063 -1.15273438 19.73578125 -0.13671875 19.6640625 C2.77778433 19.41134528 2.77778433 19.41134528 5.5625 17.25 C6.61226964 14.10069107 6.66381595 11.86185544 6.625 8.5625 C6.61597656 7.56863281 6.60695313 6.57476562 6.59765625 5.55078125 C6.58605469 4.79152344 6.57445312 4.03226563 6.5625 3.25 C3.68038698 2.28929566 1.86399956 2.14418117 -1.125 2.1875 C-1.93324219 2.19652344 -2.74148437 2.20554688 -3.57421875 2.21484375 C-4.18910156 2.22644531 -4.80398437 2.23804688 -5.4375 2.25 Z " fill="#F9F9FA" transform="translate(54.4375,40.75)"/>
<path d="M0 0 C2.12438339 -0.08078641 4.2496323 -0.13909141 6.375 -0.1875 C7.55835938 -0.22230469 8.74171875 -0.25710937 9.9609375 -0.29296875 C11.46527344 -0.14794922 11.46527344 -0.14794922 13 0 C15.97425326 4.46137989 15.49867492 8.76774934 15 14 C13.41247307 17.81006463 11.49080813 19.84854708 8 22 C5.203125 22.29296875 5.203125 22.29296875 2.25 22.1875 C0.77273437 22.14689453 0.77273437 22.14689453 -0.734375 22.10546875 C-1.48203125 22.07066406 -2.2296875 22.03585938 -3 22 C-3.39363688 14.25847464 -1.94210433 7.47941368 0 0 Z M2 2 C0.28048715 7.98044406 -1.31195504 13.80759538 -2 20 C3.44858273 20.3335867 7.22331332 19.71615517 12 17 C14.65043498 12.96672937 14.15820924 8.66717258 14 4 C10.09971775 1.39981184 6.52565431 1.84914486 2 2 Z " fill="#FCFCFD" transform="translate(126,41)"/>
<path d="M0 0 C0.33 0 0.66 0 1 0 C1.74810285 5.98482281 -0.57190066 9.37651156 -4 14 C-6.94367603 17.60837707 -9.48635289 18.87158822 -14 20 C-15.32 20 -16.64 20 -18 20 C-18 19.34 -18 18.68 -18 18 C-16.3603125 17.5359375 -16.3603125 17.5359375 -14.6875 17.0625 C-9.94392508 16.08515895 -9.94392508 16.08515895 -6.8125 12.9375 C-6.544375 12.298125 -6.27625 11.65875 -6 11 C-5.34 11 -4.68 11 -4 11 C-3.79503906 10.28972656 -3.59007812 9.57945313 -3.37890625 8.84765625 C-3.10949219 7.92855469 -2.84007812 7.00945313 -2.5625 6.0625 C-2.29566406 5.14597656 -2.02882812 4.22945312 -1.75390625 3.28515625 C-1 1 -1 1 0 0 Z " fill="#F4F4F5" transform="translate(152,53)"/>
<path d="M0 0 C0.66 0 1.32 0 2 0 C1.68981396 2.5627992 1.37693109 5.1252211 1.0625 7.6875 C0.97548828 8.40873047 0.88847656 9.12996094 0.79882812 9.87304688 C0.33686195 13.62010584 -0.19167679 17.30792911 -1 21 C-1.99 21.33 -2.98 21.66 -4 22 C-2.68 14.74 -1.36 7.48 0 0 Z " fill="#F5F5F6" transform="translate(35,44)"/>
<path d="M0 0 C0.66 0 1.32 0 2 0 C1.34 5.28 0.68 10.56 0 16 C-0.99 16.33 -1.98 16.66 -3 17 C-2.01 11.39 -1.02 5.78 0 0 Z " fill="#F1F1F3" transform="translate(85,56)"/>
<path d="M0 0 C0.33 0 0.66 0 1 0 C0.88610125 1.79240663 0.75852313 3.58394835 0.625 5.375 C0.52058594 6.87160156 0.52058594 6.87160156 0.4140625 8.3984375 C0 11 0 11 -2 13 C-2.05416188 11.39620659 -2.09286638 9.79188594 -2.125 8.1875 C-2.14820312 7.29417969 -2.17140625 6.40085937 -2.1953125 5.48046875 C-2 3 -2 3 0 0 Z " fill="#FFFFFF" transform="translate(100,48)"/>
<path d="M0 0 C0.33 0 0.66 0 1 0 C1.25 5.625 1.25 5.625 -1 9 C-1.66 9 -2.32 9 -3 9 C-2.01 6.03 -1.02 3.06 0 0 Z " fill="#FDFDFE" transform="translate(152,53)"/>
</svg>
